<!-- Generated by IcoMoon.io -->
<svg version="1.1" xmlns="http://www.w3.org/2000/svg" width="768" height="768" viewBox="0 0 768 768">
<title></title>
<g id="icomoon-ignore">
</g>
<path d="M256 256v224h256v-224h-256zM480 448h-192v-160h192v160z"></path>
<path d="M544 64h-96v64h-128v-64h-96c-52.928 0-96 43.072-96 96v416c0 52.928 43.072 96 96 96h96v-64h128v64h96c52.928 0 96-43.072 96-96v-416c0-52.928-43.072-96-96-96zM576 192c-17.696 0-32 14.304-32 32s14.304 32 32 32v32c-17.696 0-32 14.304-32 32s14.304 32 32 32v32c-17.696 0-32 14.304-32 32s14.304 32 32 32v32c-17.696 0-32 14.304-32 32s14.304 32 32 32v32c0 17.632-14.336 32-32 32h-32v-64h-256v64h-32c-17.664 0-32-14.368-32-32v-32c17.696 0 32-14.304 32-32s-14.304-32-32-32v-32c17.696 0 32-14.304 32-32s-14.304-32-32-32v-32c17.696 0 32-14.304 32-32s-14.304-32-32-32v-32c17.696 0 32-14.304 32-32s-14.304-32-32-32v-32c0-17.632 14.336-32 32-32h32v64h256v-64h32c17.664 0 32 14.368 32 32v32z"></path>
</svg>
