<!-- Generated by IcoMoon.io -->
<svg version="1.1" xmlns="http://www.w3.org/2000/svg" width="768" height="768" viewBox="0 0 768 768">
<title></title>
<g id="icomoon-ignore">
</g>
<path d="M630.88 553.632c-0.544-0.576-54.944-59.328-55.36-202.24-0.288-83.424-54.080-154.368-128.608-180.512 0.576-3.552 1.088-7.136 1.088-10.88 0-35.296-28.672-64-64-64s-64 28.704-64 64c0 3.712 0.512 7.296 1.088 10.816-74.752 26.112-128.608 97.152-128.608 180.672 0 142.784-54.752 201.472-55.072 201.792-9.184 9.152-11.968 22.912-7.040 34.912s16.672 19.808 29.632 19.808h100.576c14.304 55.040 63.968 96 123.424 96s109.12-40.96 123.424-96h100.576c12.8 0 24.256-7.776 29.28-19.52s2.432-25.568-6.4-34.848zM384 224c70.048 0 127.296 57.248 127.488 127.584 0.064 23.296 1.472 44.672 3.776 64.416h-262.4c2.272-19.744 3.616-41.152 3.616-64.512 0.032-70.272 57.216-127.488 127.52-127.488zM384 640c-23.584 0-44-12.96-55.104-32h110.176c-11.072 19.040-31.488 32-55.072 32zM218.048 544c11.264-23.552 22.56-55.392 30.016-96h272.064c7.488 40.608 18.816 72.448 30.016 96h-332.096z"></path>
</svg>
