<!-- Generated by IcoMoon.io -->
<svg version="1.1" xmlns="http://www.w3.org/2000/svg" width="768" height="768" viewBox="0 0 768 768">
<title></title>
<g id="icomoon-ignore">
</g>
<path d="M384 128c-141.152 0-256 114.848-256 256s114.848 256 256 256c51.712 0 101.504-15.328 143.968-44.288 14.592-9.984 18.368-29.888 8.416-44.48-9.952-14.624-29.824-18.304-44.48-8.416-31.808 21.728-69.12 33.184-107.904 33.184-105.888 0-192-86.112-192-192s86.112-192 192-192 192 86.112 192 192v16c0 17.664-14.336 32-32 32s-32-14.336-32-32v-96c0-17.696-14.304-32-32-32-14.112 0-25.76 9.28-30.016 22.016-18.56-13.664-41.248-22.016-65.984-22.016-61.76 0-112 50.24-112 112s50.24 112 112 112c33.44 0 63.2-15.040 83.712-38.368 17.536 23.136 45.056 38.368 76.288 38.368 52.928 0 96-43.072 96-96v-16c0-141.152-114.848-256-256-256zM384 432c-26.464 0-48-21.536-48-48s21.536-48 48-48 48 21.536 48 48-21.536 48-48 48z"></path>
</svg>
