<!-- Generated by IcoMoon.io -->
<svg version="1.1" xmlns="http://www.w3.org/2000/svg" width="576" height="576" viewBox="0 0 576 576">
<title></title>
<g id="icomoon-ignore">
</g>
<path fill="#000" d="M224.369 96c70.172 0 127.266 57.422 127.266 128 0 26.578-8.156 52.164-23.594 73.984l-12.531 17.696-17.594 12.586c-21.687 15.531-47.125 23.734-73.547 23.734-70.188 0-127.266-57.422-127.266-128s57.079-128 127.266-128zM224.369 32c-105.437 0-190.906 85.961-190.906 192s85.469 192 190.906 192c41.203 0 79.25-13.258 110.438-35.586l153.312 154.195c6.234 6.266 14.391 9.391 22.547 9.391s16.312-3.125 22.531-9.391c12.453-12.518 12.453-32.812 0-45.328l-153.312-154.195c22.203-31.375 35.375-69.648 35.375-111.086 0-106.039-85.469-192-190.891-192v0z"></path>
</svg>
